<?xml version="1.0" ?><!DOCTYPE svg  PUBLIC '-//W3C//DTD SVG 1.1//EN'  'http://www.w3.org/Graphics/SVG/1.1/DTD/svg11.dtd'><svg viewBox="0 0 128 128" xmlns="http://www.w3.org/2000/svg" xmlns:xlink="http://www.w3.org/1999/xlink"><style>:root>svg{display:none}:root>svg:target{display:block}</style><svg data-name="Layer 1" viewBox="0 0 128 128" id="fast-delivery" xmlns="http://www.w3.org/2000/svg"><path d="M62.64 103.35a1 1 0 00-1.41 0l-17.37 17.36a1 1 0 000 1.41 1 1 0 00.71.3 1 1 0 00.71-.3l17.36-17.36a1 1 0 000-1.41zM58.66 116.33a1 1 0 00.7-.29l7.28-7.28a1 1 0 00-1.41-1.41L58 114.62a1 1 0 00.71 1.71zM55.18 117.39l-2.81 2.81a1 1 0 00.71 1.71 1 1 0 00.7-.3l2.82-2.81a1 1 0 000-1.41 1 1 0 00-1.42 0zM5.88 84.14a1 1 0 00.7.29 1 1 0 00.71-.29l17.36-17.37a1 1 0 10-1.41-1.41L5.88 82.72a1 1 0 000 1.42zM13.38 70.05l7.27-7.28a1 1 0 10-1.41-1.41L12 68.64a1 1 0 00.71 1.7 1 1 0 00.67-.29zM7.8 75.63l2.81-2.81a1 1 0 000-1.42 1 1 0 00-1.41 0l-2.82 2.82a1 1 0 000 1.41 1 1 0 00.71.29 1 1 0 00.71-.29zM68 33.59l-40.88 6.46a1 1 0 00-.55.28l-6.51 6.51a1 1 0 000 1.42l16.65 16.65L32 69.63a1 1 0 000 1.42l11.46 11.46-4.54 4.55a1 1 0 00.7 1.7 1 1 0 00.71-.29l4.54-4.54L57 96a1 1 0 001.42 0l4.72-4.72 16.65 16.65a1 1 0 001.42 0l6-6 .54-.54a1 1 0 00.28-.55L94.41 60l20.29-20.3a22.75 22.75 0 005.92-10.34.61.61 0 000-.13 22 22 0 00.62-3.43l1.11-11.27a8.12 8.12 0 00-8.88-8.88l-11.24 1.08a22.74 22.74 0 00-3.41.61h-.15a22.75 22.75 0 00-10.34 5.96zM44.1 57.53L28.43 41.87 65.63 36zm-21.92-10L26.73 43l16 15.94-4.6 4.56zm58.27 58.27l-16-15.95L69 85.3l16 16zm5.68-6.26L70.47 83.9 92 62.37zm16.3-90.84l11.26-1.11a6.14 6.14 0 016.7 6.7l-1.11 11.26c0 .45-.12.9-.19 1.35l-18-18c.44-.06.91-.14 1.34-.18zm-3.66.7l19.81 19.81a20.92 20.92 0 01-5.29 9L57.66 93.88 46.29 82.51l28.77-28.77a1 1 0 000-1.41 1 1 0 00-1.42 0L44.87 81.1 34.12 70.34 44.8 59.65l44.94-44.94a21 21 0 019.03-5.29zM10.9 120.42a3.27 3.27 0 001.42-.32l19.52-9.1A11.19 11.19 0 1017 96.16l-9.1 19.52a3.33 3.33 0 003 4.74zm-1.19-3.89L18.78 97a9.12 9.12 0 016.74-5.18 10.21 10.21 0 011.65-.14 9.21 9.21 0 019 10.8 9.12 9.12 0 01-5.17 6.74l-19.53 9.07a1.32 1.32 0 01-1.76-1.76z"/><path d="M96.18 42.27a10.46 10.46 0 10-7.39-3.06 10.42 10.42 0 007.39 3.06zm-6-16.43a8.46 8.46 0 110 12 8.4 8.4 0 01.03-12z"/></svg><svg viewBox="0 0 64 64" id="flower" xmlns="http://www.w3.org/2000/svg"><path d="M53.7 14.5c-.3-.2-.7-.3-1.1-.1l-.6.3c-.1-.3-.2-.5-.4-.7l-.2-.2.8-7.7c0-.4-.1-.8-.5-1-.3-.2-.7-.2-1.1 0l-1.7 1-.1-.1-4.4-2.8c-.3-.2-.7-.2-1 0L39.1 6l-.6-.4.4-2.7c.1-.4-.1-.7-.4-1s-.7-.2-1-.1L35 3.1l-.3-.3L30.3 0c-.3-.2-.7-.2-1 0l-4.7 2.7-1.2-.8c-.3-.2-.7-.2-1.1 0-.3.2-.5.6-.5 1l.2 3.5-1.3-.8c-.3-.2-.7-.2-1 0l-5 2.8-1.4-.9c-.3-.2-.7-.2-1.1 0-.3.2-.5.6-.5 1l.7 6.7-.9-.6c-.3-.2-.8-.2-1.1 0-.3.2-.5.6-.4 1l5.1 22.8c.1.2.2.4.4.6l15.1 11.4-2.6-1.1c-.5-.3-.8-.3-1.1-.3-1.3 0-2.4 1.1-2.4 2.4 0 1.3 1.1 2.4 2.4 2.4.3 0 .5 0 .8-.1l2.9-.9-4.1 2.9c-.3.2-.4.5-.4.8V63c0 .3.2.7.5.8.2.1.3.2.5.2.1 0 .3 0 .4-.1l5.3-2.5 5.9 2.5c.3.1.7.1.9-.1.3-.2.5-.5.5-.8v-6.4c0-.3-.1-.6-.4-.8l-3.2-2.4.7.2c.2.1.5.1.8.1 1.3 0 2.4-1.1 2.4-2.4 0-1.3-1.1-2.4-2.4-2.4-.3 0-.6.1-.9.2L35 50l8.9-6c.4-.3.6-.9.3-1.3l4.7-3.8c.2-.1.3-.3.4-.6L54 15.5c.1-.4 0-.8-.3-1zm-10 4.2l.7-6.9 5.5 3.6v.3l-6.2 3zm-23.9 1.4l-.1-2.1 10.9 7.1-2 .9-8.8-5.9zm-1.6-9.4l1.5-.8 1 .6-1.5.8-1-.6zm7.5-.6l-.3 3.1c-.2 0-.4 0-.6.1l-1.4.8-2.3-1.5 4.6-2.5zm-.5 5.3l3.2 2-.8.5-1.9-1.3-2.3 1.4-1.2-.8 3-1.8zm9.9-3.8l1.1-.6 3.1 2-.8.5-2-1.4-2.5 1.2-.9-.5 2-1.2zm0 2.5l1.4-.8 1.1.8-1.5.8-1-.8zm7.1-.6l-.5 5.1-3.7-2.5 4.2-2.6zm1.9-4.2l-1-.7 1.3-.6.9.6-1.2.7zm-1.3 1.5l-1.6 1-.1-.1-2.1-1.3-.3-2.2 4.1 2.6zM30.7 22.7l-3.4-2.2 2.4-1.5c.1 0 .2-.1.2-.1l1.3-.9-.5 4.7zm-6.4-4.1l1.4-.8 1 .7-1.3.8-1.1-.7zm8.3 5.4l.8-8c0-.4-.1-.8-.5-1s-.7-.2-1.1 0l-1 .6-.2-2.2 9.8 6.6-7.8 4zm16.8-11.3L46 10.5 49.9 8l-.5 4.7zm-5.5-7.2l3.1 2-.8.5-1.8-1.2L42.2 8 41 7.2l2.9-1.7zm-8 3.4c-.1 0-.1 0-.2.1l-1.1.6-3.5-2.3 5.3-2.7-.5 4.3zM29.3 6l-.7-.5 1-.5.8.5-1.1.5zm.3-3.8l3.2 2-1.4.8-1.7-1.1-2 1.1-1.3-.8 3.2-2zm-5.7 2.7l8.9 5.8-1.5.9-1.2-.8c-.3-.2-.7-.2-1.1 0-.3.2-.5.6-.5.9l.3 3.6-1.6-1 .6-5.9c0-.4-.1-.7-.4-.9-.3-.2-.7-.2-1 0l-1.3.7-.9-.5-.3-2.8zm-3.7 2.7L23 9.3l-1.3.7-1.9-1.3-2.5 1.4-.7-.5 3.6-2zm-6.3 2.7l7.5 5-1.2.7-1.1-.7c-.3-.2-.7-.2-1.1 0s-.5.6-.5.9l.2 2.5-3.1-2.1-.7-6.3zm13.4 42.4c-.1 0-.3.1-.4.1-.8 0-1.4-.6-1.4-1.4 0-.8.6-1.4 1.4-1.4.2 0 .4 0 .6.1l3.4 1.5-3.6 1.1zM38 61.5l-4.9-2.1c-.1-.1-.3-.1-.4-.1-.1 0-.3 0-.4.1l-4.3 2V57l2.9-2.1-1 2.5c-.1.3 0 .5.3.6h.2c.2 0 .4-.1.5-.3l1.5-3.9.1-.1 1.5 4c.1.2.3.3.5.3h.2c.3-.1.4-.4.3-.6l-1.4-3.6 4.5 3.3v4.4zm-.7-11.4c.9-.4 2 .3 2 1.3 0 .9-1 1.6-1.9 1.3l-3.5-1.2 3.4-1.4zm-4.8-.8L16.9 37.5l-4.4-20 24.2 16.3 5.4 9.1-9.6 6.4zm14.9-11.8l-4.2 3.4-4.9-8.3-.3-.3-7.4-5 21.1-10.2-4.3 20.4z" fill="#4D4D4D"/></svg><svg viewBox="0 0 64 64" stroke-width="3" stroke="currentColor" fill="none" id="tel" xmlns="http://www.w3.org/2000/svg"><path d="M11.11 8.4a2.62 2.62 0 00-2.53 2.78c.35 6 2 20.64 9.9 29.77 9.46 11 21.78 14.79 34.42 14.23a2.68 2.68 0 002.52-2.65v-9.61a4 4 0 00-3.09-3.86L46 37.66a4 4 0 00-4.16 1.69l-1.4 2.12a1 1 0 01-1.22.37C36 40.45 23.17 34.45 21.76 24.33a1 1 0 01.48-1l2.54-1.55a4 4 0 001.81-4.21l-1.39-6.44a4 4 0 00-4-3.12z"/></svg></svg>